<svg xmlns="http://www.w3.org/2000/svg" xmlns:xlink="http://www.w3.org/1999/xlink" viewBox="0 0 430 430" width="430" height="430" preserveAspectRatio="xMidYMid meet" style="width: 100%; height: 100%; transform: translate3d(0px, 0px, 0px); content-visibility: visible;"><defs><clipPath id="__lottie_element_229"><rect width="430" height="430" x="0" y="0"/></clipPath><clipPath id="__lottie_element_231"><path d="M0,0 L430,0 L430,430 L0,430z"/></clipPath><clipPath id="__lottie_element_426"><path d="M0,0 L430,0 L430,430 L0,430z"/></clipPath><clipPath id="__lottie_element_523"><path d="M0,0 L430,0 L430,430 L0,430z"/></clipPath><clipPath id="__lottie_element_527"><path d="M0,0 L430,0 L430,430 L0,430z"/></clipPath><g id="__lottie_element_530"><g style="display: block;" transform="matrix(1,0,0,1,215,215)" opacity="1"><g opacity="1" transform="matrix(1,0,0,1,0,0)"><path fill="rgb(255,0,0)" fill-opacity="1" d=" M-26.687000274658203,0 C-26.687000274658203,14.73900032043457 -14.73900032043457,26.687000274658203 0,26.687000274658203 C14.73900032043457,26.687000274658203 26.687000274658203,14.73900032043457 26.687000274658203,0 C26.687000274658203,-14.73900032043457 14.73900032043457,-26.687000274658203 0,-26.687000274658203 C-14.73900032043457,-26.687000274658203 -26.687000274658203,-14.73900032043457 -26.687000274658203,0z"/></g></g></g><filter id="__lottie_element_533" filterUnits="objectBoundingBox" x="0%" y="0%" width="100%" height="100%"><feComponentTransfer in="SourceGraphic"><feFuncA type="table" tableValues="1.0 0.0"/></feComponentTransfer></filter><mask id="__lottie_element_530_2" mask-type="alpha"><g filter="url(#__lottie_element_533)"><rect width="430" height="430" x="0" y="0" fill="#ffffff" opacity="0"/><use xmlns:ns1="http://www.w3.org/1999/xlink" ns1:href="#__lottie_element_530"/></g></mask></defs><g clip-path="url(#__lottie_element_229)"><g clip-path="url(#__lottie_element_426)" transform="matrix(1,0,0,1,0,0)" opacity="1" style="display: block;"><g transform="matrix(0.9999905228614807,0.004346850793808699,-0.004346850793808699,0.9999905228614807,215,215)" opacity="1" style="display: block;"><g opacity="1" transform="matrix(1,0,0,1,0,0)"><path stroke-linecap="round" stroke-linejoin="round" fill-opacity="0" class="primary" stroke="rgb(227,227,227)" stroke-opacity="1" stroke-width="12" d=" M-62.21334457397461,0 C-62.21334457397461,87.21794891357422 -34.359619140625,157.922607421875 0,157.922607421875 C34.359619140625,157.922607421875 62.21334457397461,87.21794891357422 62.21334457397461,0 C62.21334457397461,-87.21794891357422 34.359619140625,-157.922607421875 0,-157.922607421875 C-34.359619140625,-157.922607421875 -62.21334457397461,-87.21794891357422 -62.21334457397461,0z"/></g></g><g transform="matrix(0.4873048961162567,-0.8732318878173828,0.8732318878173828,0.4873048961162567,215,215)" opacity="1" style="display: block;"><g opacity="1" transform="matrix(1,0,0,1,0,0)"><path stroke-linecap="round" stroke-linejoin="round" fill-opacity="0" class="primary" stroke="rgb(227,227,227)" stroke-opacity="1" stroke-width="12" d=" M-63.43500900268555,0 C-63.43500900268555,86.45850372314453 -35.034278869628906,156.5475311279297 0,156.5475311279297 C35.034278869628906,156.5475311279297 63.43500900268555,86.45850372314453 63.43500900268555,0 C63.43500900268555,-86.45850372314453 35.034278869628906,-156.5475311279297 0,-156.5475311279297 C-35.034278869628906,-156.5475311279297 -63.43500900268555,-86.45850372314453 -63.43500900268555,0z"/></g></g><g transform="matrix(-0.481198251247406,-0.8766117691993713,0.8766117691993713,-0.481198251247406,215,215)" opacity="1" style="display: block;"><g opacity="1" transform="matrix(1,0,0,1,0,0)"><path stroke-linecap="round" stroke-linejoin="round" fill-opacity="0" class="primary" stroke="rgb(227,227,227)" stroke-opacity="1" stroke-width="12" d=" M-62.4889030456543,0 C-62.4889030456543,87.04664611816406 -34.51179885864258,157.61244201660156 0,157.61244201660156 C34.51179885864258,157.61244201660156 62.4889030456543,87.04664611816406 62.4889030456543,0 C62.4889030456543,-87.04664611816406 34.51179885864258,-157.61244201660156 0,-157.61244201660156 C-34.51179885864258,-157.61244201660156 -62.4889030456543,-87.04664611816406 -62.4889030456543,0z"/></g></g><g transform="matrix(1,0,0,1,215,215)" opacity="1" style="display: block;"><g opacity="1" transform="matrix(1,0,0,1,0,0)"><path stroke-linecap="round" stroke-linejoin="round" fill-opacity="0" class="secondary" stroke="rgb(21,98,198)" stroke-opacity="1" stroke-width="12" d=" M-26.44598388671875,0 C-26.44598388671875,14.605889320373535 -14.605889320373535,26.44598388671875 0,26.44598388671875 C14.605889320373535,26.44598388671875 26.44598388671875,14.605889320373535 26.44598388671875,0 C26.44598388671875,-14.605889320373535 14.605889320373535,-26.44598388671875 0,-26.44598388671875 C-14.605889320373535,-26.44598388671875 -26.44598388671875,-14.605889320373535 -26.44598388671875,0z"/></g></g></g><g clip-path="url(#__lottie_element_231)" transform="matrix(1,0,0,1,0,0)" opacity="1" style="display: none;"><g transform="matrix(0.9999996423721313,0.000834706355817616,-0.000834706355817616,0.9999996423721313,215,215)" opacity="1" style="display: block;"><g opacity="1" transform="matrix(1,0,0,1,0,0)"><path stroke-linecap="round" stroke-linejoin="round" fill-opacity="0" class="primary" stroke="rgb(18,19,49)" stroke-opacity="1" stroke-width="6" d=" M-60.34874725341797,0 C-60.34874725341797,88.3770751953125 -33.32990646362305,160.0213623046875 0,160.0213623046875 C33.32990646362305,160.0213623046875 60.34874725341797,88.3770751953125 60.34874725341797,0 C60.34874725341797,-88.3770751953125 33.32990646362305,-160.0213623046875 0,-160.0213623046875 C-33.32990646362305,-160.0213623046875 -60.34874725341797,-88.3770751953125 -60.34874725341797,0z"/></g></g><g transform="matrix(0.49903586506843567,-0.8665813207626343,0.8665813207626343,0.49903586506843567,215,215)" opacity="1" style="display: block;"><g opacity="1" transform="matrix(1,0,0,1,0,0)"><path stroke-linecap="round" stroke-linejoin="round" fill-opacity="0" class="primary" stroke="rgb(18,19,49)" stroke-opacity="1" stroke-width="6" d=" M-60.44475555419922,0 C-60.44475555419922,88.31739044189453 -33.38292694091797,159.91329956054688 0,159.91329956054688 C33.38292694091797,159.91329956054688 60.44475555419922,88.31739044189453 60.44475555419922,0 C60.44475555419922,-88.31739044189453 33.38292694091797,-159.91329956054688 0,-159.91329956054688 C-33.38292694091797,-159.91329956054688 -60.44475555419922,-88.31739044189453 -60.44475555419922,0z"/></g></g><g transform="matrix(-0.4839850664138794,-0.8750762343406677,0.8750762343406677,-0.4839850664138794,215,215)" opacity="1" style="display: block;"><g opacity="1" transform="matrix(1,0,0,1,0,0)"><path stroke-linecap="round" stroke-linejoin="round" fill-opacity="0" class="primary" stroke="rgb(18,19,49)" stroke-opacity="1" stroke-width="6" d=" M-60.36867904663086,0 C-60.36867904663086,88.36468505859375 -33.340911865234375,159.99891662597656 0,159.99891662597656 C33.340911865234375,159.99891662597656 60.36867904663086,88.36468505859375 60.36867904663086,0 C60.36867904663086,-88.36468505859375 33.340911865234375,-159.99891662597656 0,-159.99891662597656 C-33.340911865234375,-159.99891662597656 -60.36867904663086,-88.36468505859375 -60.36867904663086,0z"/></g></g><g transform="matrix(1,0,0,1,215,215)" opacity="1" style="display: block;"><g opacity="1" transform="matrix(1,0,0,1,0,0)"><path stroke-linecap="round" stroke-linejoin="round" fill-opacity="0" class="secondary" stroke="rgb(8,168,138)" stroke-opacity="1" stroke-width="6" d=" M-26.68193817138672,0 C-26.68193817138672,14.736204147338867 -14.736204147338867,26.68193817138672 0,26.68193817138672 C14.736204147338867,26.68193817138672 26.68193817138672,14.736204147338867 26.68193817138672,0 C26.68193817138672,-14.736204147338867 14.736204147338867,-26.68193817138672 0,-26.68193817138672 C-14.736204147338867,-26.68193817138672 -26.68193817138672,-14.736204147338867 -26.68193817138672,0z"/></g></g></g><g clip-path="url(#__lottie_element_523)" transform="matrix(1,0,0,1,0,0)" opacity="1" style="display: none;"><g mask="url(#__lottie_element_530_2)" style="display: block;"><g clip-path="url(#__lottie_element_527)" transform="matrix(1,0,0,1,0,0)" opacity="1"><g transform="matrix(1,0,0,1,215,215)" opacity="1" style="display: block;"><g opacity="1" transform="matrix(1,0,0,1,0,0)"><path stroke-linecap="round" stroke-linejoin="round" fill-opacity="0" class="primary" stroke="rgb(227,227,227)" stroke-opacity="1" stroke-width="12" d=" M-60.262001037597656,0 C-60.262001037597656,88.43099975585938 -33.28200149536133,160.11900329589844 0,160.11900329589844 C33.28200149536133,160.11900329589844 60.262001037597656,88.43099975585938 60.262001037597656,0 C60.262001037597656,-88.43099975585938 33.28200149536133,-160.11900329589844 0,-160.11900329589844 C-33.28200149536133,-160.11900329589844 -60.262001037597656,-88.43099975585938 -60.262001037597656,0z"/></g></g><g transform="matrix(0.49999988079071045,-0.866025447845459,0.866025447845459,0.49999988079071045,215,215)" opacity="1" style="display: block;"><g opacity="1" transform="matrix(1,0,0,1,0,0)"><path stroke-linecap="round" stroke-linejoin="round" fill-opacity="0" class="primary" stroke="rgb(227,227,227)" stroke-opacity="1" stroke-width="12" d=" M-60.262001037597656,0 C-60.262001037597656,88.43099975585938 -33.28200149536133,160.11900329589844 0,160.11900329589844 C33.28200149536133,160.11900329589844 60.262001037597656,88.43099975585938 60.262001037597656,0 C60.262001037597656,-88.43099975585938 33.28200149536133,-160.11900329589844 0,-160.11900329589844 C-33.28200149536133,-160.11900329589844 -60.262001037597656,-88.43099975585938 -60.262001037597656,0z"/></g></g><g transform="matrix(-0.4848095178604126,-0.8746197819709778,0.8746197819709778,-0.4848095178604126,215,215)" opacity="1" style="display: block;"><g opacity="1" transform="matrix(1,0,0,1,0,0)"><path stroke-linecap="round" stroke-linejoin="round" fill-opacity="0" class="primary" stroke="rgb(227,227,227)" stroke-opacity="1" stroke-width="12" d=" M-60.262001037597656,0 C-60.262001037597656,88.43099975585938 -33.28200149536133,160.11900329589844 0,160.11900329589844 C33.28200149536133,160.11900329589844 60.262001037597656,88.43099975585938 60.262001037597656,0 C60.262001037597656,-88.43099975585938 33.28200149536133,-160.11900329589844 0,-160.11900329589844 C-33.28200149536133,-160.11900329589844 -60.262001037597656,-88.43099975585938 -60.262001037597656,0z"/></g></g></g></g><g transform="matrix(1,0,0,1,215,215)" opacity="1" style="display: block;"><g opacity="1" transform="matrix(1,0,0,1,0,0)"><path stroke-linecap="round" stroke-linejoin="round" fill-opacity="0" class="secondary" stroke="rgb(21,98,198)" stroke-opacity="1" stroke-width="12" d=" M-26.687000274658203,0 C-26.687000274658203,14.73900032043457 -14.73900032043457,26.687000274658203 0,26.687000274658203 C14.73900032043457,26.687000274658203 26.687000274658203,14.73900032043457 26.687000274658203,0 C26.687000274658203,-14.73900032043457 14.73900032043457,-26.687000274658203 0,-26.687000274658203 C-14.73900032043457,-26.687000274658203 -26.687000274658203,-14.73900032043457 -26.687000274658203,0z"/></g></g></g></g></svg>